<svg width="1200" height="630" viewBox="0 0 1200 630" fill="none" xmlns="http://www.w3.org/2000/svg">
<g clip-path="url(#clip0_50_56)">
<rect width="1200" height="630" fill="#D7DDEA"/>
<path d="M767.667 140L738 169.749C851.547 283.609 905.636 394.729 905.689 503.338C905.742 611.945 851.763 723.059 738.332 836.914L738.004 837.243L767.663 867L768 866.663C881.541 752.922 992.352 698.793 1100.66 698.846C1208.97 698.899 1319.79 753.137 1433.33 866.996L1463 837.247C1349.4 723.332 1295.31 612.159 1295.31 503.498C1295.31 394.837 1349.4 283.664 1463 169.749L1433.33 140C1319.73 253.915 1208.86 308.15 1100.5 308.15C992.137 308.15 881.27 253.915 767.667 140Z" fill="#C4CBDB"/>
<path d="M-263.13 -141L-284 -120.049C-204.126 -39.8615 -166.077 38.3963 -166.04 114.886C-166.002 191.374 -203.973 269.628 -283.766 349.811L-283.997 350.043L-263.133 371L-262.897 370.763C-183.027 290.659 -105.077 252.538 -28.8879 252.575C47.3035 252.612 125.256 290.81 205.13 370.997L226 350.046C146.087 269.82 108.04 191.525 108.04 114.999C108.04 38.4725 146.087 -39.8225 226 -120.049L205.13 -141C125.217 -60.7737 47.2275 -22.5776 -29 -22.5776C-105.228 -22.5776 -183.217 -60.7737 -263.13 -141Z" fill="#C4CBDB"/>
<path d="M322.075 288.153V268.919H311.058C298.92 268.919 291.637 273.588 286.969 285.539V268.919H264V363.035H286.969V318.591C286.969 300.664 292.757 288.153 307.323 288.153H322.075Z" fill="#0F172A"/>
<path d="M396.636 331.663C394.208 340.626 386.552 345.481 374.787 345.481C360.222 345.481 350.512 335.771 348.831 320.645H418.297C418.484 318.778 418.671 315.977 418.671 312.802C418.671 290.394 404.479 267.425 372.92 267.425C342.109 267.425 326.796 290.767 326.796 315.603C326.796 340.253 343.976 364.528 374.787 364.528C397.943 364.528 415.496 351.644 419.044 331.663H396.636ZM372.92 284.605C386.552 284.605 394.768 293.568 395.702 305.52H349.391C351.819 291.328 360.035 284.605 372.92 284.605Z" fill="#0F172A"/>
<path d="M472.241 267.425C447.778 267.425 431.906 281.991 430.785 300.664H451.326C451.7 292.261 458.982 284.605 471.12 284.605C483.258 284.605 490.354 291.141 490.354 300.291C490.354 304.026 488.113 306.64 483.445 306.64H466.078C444.977 306.64 430.785 318.031 430.785 336.331C430.785 352.577 443.483 364.528 462.157 364.528C475.602 364.528 486.433 358.366 490.354 349.029V363.035H512.949V302.532C512.949 281.244 496.143 267.425 472.241 267.425ZM467.572 347.535C458.982 347.535 453.007 342.68 453.007 335.397C453.007 327.181 459.543 321.766 469.253 321.766H490.354V323.26C490.354 337.452 481.951 347.535 467.572 347.535Z" fill="#0F172A"/>
<path d="M531.433 363.035H554.215V228.584H531.433V363.035Z" fill="#0F172A"/>
<path d="M643.253 363.035H666.221V268.919H643.253V363.035Z" fill="#0F172A"/>
<path d="M686.837 363.035H709.805V309.068C709.805 295.809 717.462 287.033 729.6 287.033C740.617 287.033 747.526 295.809 747.526 309.068V363.035H770.308V309.068C770.308 295.809 777.964 287.033 790.289 287.033C801.307 287.033 808.216 295.809 808.216 309.068V363.035H830.998V302.158C830.998 282.177 817.926 267.425 797.572 267.425C782.633 267.425 770.682 275.642 766.387 285.352C762.279 273.774 752.008 267.425 737.069 267.425C723.811 267.425 714.474 274.148 709.805 283.671V268.919H686.837V363.035Z" fill="#0F172A"/>
<path d="M913.592 331.663C911.164 340.626 903.508 345.481 891.743 345.481C877.178 345.481 867.468 335.771 865.787 320.645H935.253C935.44 318.778 935.627 315.977 935.627 312.802C935.627 290.394 921.435 267.425 889.876 267.425C859.064 267.425 843.752 290.767 843.752 315.603C843.752 340.253 860.932 364.528 891.743 364.528C914.899 364.528 932.452 351.644 936 331.663H913.592ZM889.876 284.605C903.508 284.605 911.724 293.568 912.658 305.52H866.347C868.775 291.328 876.991 284.605 889.876 284.605Z" fill="#0F172A"/>
<path d="M575.935 238.071V267.026V286.647V329.508C575.935 350.843 589.65 363.035 610.604 363.035H626.034V343.223H613.271C604.508 343.223 599.365 338.27 599.365 328.555V286.647H626.034V267.026H599.365V238.071H575.935Z" fill="#0F172A"/>
<path d="M635.724 212L634.033 213.69C640.503 220.16 643.585 226.474 643.588 232.645C643.591 238.816 640.515 245.13 634.052 251.599L634.033 251.618L635.723 253.309L635.743 253.289C642.212 246.826 648.525 243.751 654.696 243.754C660.868 243.757 667.182 246.839 673.651 253.308L675.342 251.618C668.869 245.145 665.787 238.828 665.787 232.654C665.787 226.48 668.869 220.163 675.342 213.69L673.651 212C667.179 218.473 660.862 221.554 654.687 221.554C648.513 221.554 642.196 218.473 635.724 212Z" fill="#EC4899"/>
<path d="M-158.333 461L-188 490.749C-74.4532 604.609 -20.3641 715.729 -20.3112 824.338C-20.2582 932.945 -74.2366 1044.06 -187.668 1157.91L-187.996 1158.24L-158.337 1188L-158 1187.66C-44.4594 1073.92 66.352 1019.79 174.659 1019.85C282.971 1019.9 393.786 1074.14 507.333 1188L537 1158.25C423.398 1044.33 369.311 933.159 369.311 824.498C369.311 715.837 423.398 604.664 537 490.749L507.332 461C393.73 574.915 282.863 629.15 174.5 629.15C66.1373 629.15 -44.7303 574.915 -158.333 461Z" fill="#C4CBDB"/>
</g>
<defs>
<clipPath id="clip0_50_56">
<rect width="1200" height="630" fill="white"/>
</clipPath>
</defs>
</svg>
